<svg xmlns="http://www.w3.org/2000/svg" version="1.1" xmlns:xlink="http://www.w3.org/1999/xlink" xmlns:svgjs="http://svgjs.dev/svgjs" width="1500" height="935" viewBox="0 0 1500 935"><g transform="matrix(1,0,0,1,-0.9090909090909918,0.3785425101214628)"><svg viewBox="0 0 396 247" data-background-color="#ffffff" preserveAspectRatio="xMidYMid meet" height="935" width="1500" xmlns="http://www.w3.org/2000/svg" xmlns:xlink="http://www.w3.org/1999/xlink"><g id="tight-bounds" transform="matrix(1,0,0,1,0.2400000000000091,-0.09999999999999432)"><svg viewBox="0 0 395.52 247.2" height="247.2" width="395.52"><g><svg></svg></g><g><svg viewBox="0 0 395.52 247.2" height="247.2" width="395.52"><g transform="matrix(1,0,0,1,75.54432,108.18195638264505)"><svg viewBox="0 0 244.43135999999998 30.836087234709876" height="30.836087234709876" width="244.43135999999998"><g><svg viewBox="0 0 244.43135999999998 30.836087234709876" height="30.836087234709876" width="244.43135999999998"><g><svg viewBox="0 0 244.43135999999998 30.836087234709876" height="30.836087234709876" width="244.43135999999998"><g id="textblocktransform"><svg viewBox="0 0 244.43135999999998 30.836087234709876" height="30.836087234709876" width="244.43135999999998" id="textblock"><g><svg viewBox="0 0 244.43135999999998 30.836087234709876" height="30.836087234709876" width="244.43135999999998"><g transform="matrix(1,0,0,1,0,0)"><svg width="244.43135999999998" viewBox="4.5 -35.6 286.93 36.2" height="30.836087234709876" data-palette-color="#000000"><path d="M14.6 0.4L14.6 0.4Q11.55 0.4 8.83 0.25 6.1 0.1 4.5-0.1L4.5-0.1 4.5-34.9Q6.25-35.1 8.85-35.25 11.45-35.4 14.8-35.4L14.8-35.4Q21.2-35.4 24.65-32.98 28.1-30.55 28.1-26.4L28.1-26.4Q28.1-23.65 26.63-21.73 25.15-19.8 22.35-18.55L22.35-18.55Q25.75-17.35 27.5-15.23 29.25-13.1 29.25-10L29.25-10Q29.25-5.25 25.5-2.43 21.75 0.4 14.6 0.4ZM9.25-31.3L9.25-19.9 14.75-19.9Q18.7-19.9 21.03-21.55 23.35-23.2 23.35-25.8L23.35-25.8Q23.35-28.6 21.05-30.08 18.75-31.55 14.75-31.55L14.75-31.55Q13.1-31.55 11.75-31.48 10.4-31.4 9.25-31.3L9.25-31.3ZM14.95-3.55L14.95-3.55Q19.4-3.55 21.9-5.15 24.4-6.75 24.4-9.8L24.4-9.8Q24.4-12.8 21.95-14.5 19.5-16.2 14.95-16.2L14.95-16.2 9.25-16.2 9.25-3.85Q11.9-3.55 14.95-3.55ZM64.4-1.25L60.05 0.5 56.15-9.5 39.95-9.5 36.05 0.4 32-1.25 45.7-35 50.9-35 64.4-1.25ZM48.05-30.3L41.45-13.5 54.6-13.5 48.05-30.3ZM94.25-1.5L89.8 0.6 85.44-8.9Q83.8-12.45 81.3-13.95 78.8-15.45 74.89-15.45L74.89-15.45 74.14-15.45 74.14 0 69.39 0 69.39-34.9Q72.05-35.15 74.47-35.27 76.89-35.4 79.64-35.4L79.64-35.4Q86.05-35.4 89.27-32.8 92.5-30.2 92.5-26.1L92.5-26.1Q92.5-22.45 90.32-20.23 88.14-18 84.05-16.9L84.05-16.9Q85.39-16.3 86.44-15.48 87.5-14.65 88.47-13.28 89.44-11.9 90.44-9.7L90.44-9.7 94.25-1.5ZM74.14-31.2L74.14-19.45 79.64-19.45Q83.25-19.45 85.5-21.05 87.75-22.65 87.75-25.65L87.75-25.65Q87.75-28.15 85.64-29.78 83.55-31.4 79.64-31.4L79.64-31.4Q77.94-31.4 76.59-31.35 75.25-31.3 74.14-31.2L74.14-31.2ZM128.64-1.25L124.29 0.5 120.39-9.5 104.19-9.5 100.29 0.4 96.24-1.25 109.94-35 115.14-35 128.64-1.25ZM112.29-30.3L105.69-13.5 118.84-13.5 112.29-30.3ZM138.39 0L133.64 0 133.64-35 138.39-35 138.39-20.05 155.64-20.05 155.64-35 160.39-35 160.39 0 155.64 0 155.64-15.95 138.39-15.95 138.39 0ZM183.89 0.6L183.89 0.6Q179.99 0.6 176.94-0.83 173.89-2.25 171.76-4.73 169.64-7.2 168.51-10.5 167.39-13.8 167.39-17.55L167.39-17.55Q167.39-22.7 169.36-26.78 171.34-30.85 175.04-33.23 178.74-35.6 183.89-35.6L183.89-35.6Q187.74-35.6 190.81-34.2 193.89-32.8 196.04-30.3 198.19-27.8 199.31-24.55 200.44-21.3 200.44-17.55L200.44-17.55Q200.44-13.8 199.31-10.5 198.19-7.2 196.04-4.73 193.89-2.25 190.84-0.83 187.79 0.6 183.89 0.6ZM183.89-3.5L183.89-3.5Q187.74-3.5 190.34-5.35 192.94-7.2 194.26-10.38 195.59-13.55 195.59-17.55L195.59-17.55Q195.59-20.25 194.79-22.75 193.99-25.25 192.49-27.23 190.99-29.2 188.81-30.35 186.64-31.5 183.89-31.5L183.89-31.5Q180.24-31.5 177.61-29.65 174.99-27.8 173.61-24.65 172.24-21.5 172.24-17.55L172.24-17.55Q172.24-14.85 173.01-12.33 173.79-9.8 175.29-7.8 176.79-5.8 178.96-4.65 181.14-3.5 183.89-3.5ZM228.24 0L207.44 0 207.44-35 212.19-35 212.19-4.25 228.24-4.25 228.24 0ZM258.03-2.8L254.73 0.6 237.73-16.1 237.73 0 232.98 0 232.98-35 237.73-35 237.73-19.05 252.63-35.15 255.83-32.2 242.18-18 258.03-2.8ZM291.43-1.25L287.08 0.5 283.18-9.5 266.98-9.5 263.08 0.4 259.03-1.25 272.73-35 277.93-35 291.43-1.25ZM275.08-30.3L268.48-13.5 281.63-13.5 275.08-30.3Z" opacity="1" transform="matrix(1,0,0,1,0,0)" fill="#000000" class="wordmark-text-0" data-fill-palette-color="primary" id="text-0"></path></svg></g></svg></g></svg></g></svg></g></svg></g></svg></g><path d="M176.415 102.182L176.415 38.199 5.613 38.199 5.613 209.001 176.415 209.001 176.415 145.018 173.634 145.018 173.634 206.22 8.394 206.22 8.394 40.98 173.634 40.98 173.634 102.182Z" fill="#000000" stroke="transparent" data-fill-palette-color="tertiary"></path></svg></g><defs></defs></svg><rect width="395.52" height="247.2" fill="none" stroke="none" visibility="hidden"></rect></g></svg></g></svg>